<svg width="375" height="44" viewBox="0 0 375 44" fill="none" xmlns="http://www.w3.org/2000/svg">
<g filter="url(#filter0_b_1_52)">
<path d="M34.4131 30H36.4287V18.7266H34.4209L31.4756 20.7969V22.6953L34.2803 20.7109H34.4131V30ZM40.6947 22.6953C41.4134 22.6953 41.9369 22.1484 41.9369 21.4609C41.9369 20.7656 41.4134 20.2266 40.6947 20.2266C39.9837 20.2266 39.4525 20.7656 39.4525 21.4609C39.4525 22.1484 39.9837 22.6953 40.6947 22.6953ZM40.6947 28.4922C41.4134 28.4922 41.9369 27.9531 41.9369 27.2578C41.9369 26.5625 41.4134 26.0234 40.6947 26.0234C39.9837 26.0234 39.4525 26.5625 39.4525 27.2578C39.4525 27.9531 39.9837 28.4922 40.6947 28.4922ZM46.945 30H48.9606V18.7266H46.9528L44.0075 20.7969V22.6953L46.8122 20.7109H46.945V30ZM54.5312 30H56.5469V18.7266H54.5391L51.5938 20.7969V22.6953L54.3984 20.7109H54.5312V30Z" fill="white"/>
<path d="M63.6929 24.6538L67.5493 24.6646C67.6138 24.6646 67.6245 24.6699 67.6245 24.7397L67.6353 28.5801C67.6353 29.5791 68.8975 29.7993 69.3379 28.8433L73.2803 20.2817C73.7476 19.272 72.9688 18.5684 71.9805 19.0195L63.3813 22.978C62.4897 23.3862 62.6777 24.6484 63.6929 24.6538Z" fill="white"/>
</g>
<g filter="url(#filter1_b_1_52)">
<g clip-path="url(#clip0_1_52)">
<rect opacity="0.2" x="302.5" y="19" width="3.5" height="11.5" rx="1" fill="white"/>
<path d="M297.5 22.5C297.5 21.9477 297.948 21.5 298.5 21.5H300C300.552 21.5 301 21.9477 301 22.5V29.5C301 30.0523 300.552 30.5 300 30.5H298.5C297.948 30.5 297.5 30.0523 297.5 29.5V22.5Z" fill="white"/>
<path d="M292.5 25C292.5 24.4477 292.948 24 293.5 24H295C295.552 24 296 24.4477 296 25V29.5C296 30.0523 295.552 30.5 295 30.5H293.5C292.948 30.5 292.5 30.0523 292.5 29.5V25Z" fill="white"/>
<path d="M287.5 27C287.5 26.4477 287.948 26 288.5 26H290C290.552 26 291 26.4477 291 27V29.5C291 30.0523 290.552 30.5 290 30.5H288.5C287.948 30.5 287.5 30.0523 287.5 29.5V27Z" fill="white"/>
<path d="M321.325 28.2891C321.39 28.2255 321.426 28.138 321.424 28.0473C321.422 27.9566 321.383 27.8707 321.316 27.8098C319.979 26.6784 318.022 26.6784 316.686 27.8098C316.618 27.8706 316.579 27.9565 316.577 28.0472C316.575 28.138 316.611 28.2254 316.676 28.2891L318.768 30.4029C318.83 30.465 318.913 30.5 319.001 30.5C319.088 30.5 319.171 30.465 319.233 30.4029L321.325 28.2891Z" fill="#CCCCCC"/>
<path d="M319 25.369C320.276 25.369 321.506 25.8435 322.451 26.7006C322.579 26.8222 322.781 26.8195 322.905 26.6946L324.115 25.4711C324.179 25.4069 324.214 25.3199 324.213 25.2294C324.212 25.1389 324.175 25.0526 324.11 24.9898C321.231 22.3088 316.772 22.3088 313.893 24.9898C313.828 25.0526 313.791 25.139 313.79 25.2295C313.789 25.32 313.825 25.407 313.889 25.4711L315.098 26.6946C315.223 26.8195 315.424 26.8222 315.552 26.7006C316.497 25.8441 317.726 25.3696 319 25.369Z" fill="#CCCCCC"/>
<path opacity="0.2" d="M319 21.3883C321.322 21.3884 323.555 22.2813 325.237 23.8825C325.364 24.0061 325.566 24.0045 325.691 23.879L326.902 22.6555C326.965 22.5918 327.001 22.5055 327 22.4158C326.999 22.326 326.963 22.2402 326.899 22.1772C322.483 17.9409 315.517 17.9409 311.101 22.1772C311.037 22.2401 311.001 22.326 311 22.4157C310.999 22.5055 311.035 22.5917 311.098 22.6555L312.309 23.879C312.434 24.0047 312.637 24.0063 312.763 23.8825C314.446 22.2812 316.679 21.3883 319 21.3883Z" fill="white"/>
<g clip-path="url(#clip1_1_52)">
<path d="M333 21.75C333 21.0596 333.56 20.5 334.25 20.5H335V29H334.25C333.56 29 333 28.4404 333 27.75V21.75Z" fill="white"/>
<path d="M335 20.5H337V29H335V20.5Z" fill="white"/>
<path d="M337 20.5H339V29H337V20.5Z" fill="white"/>
<path d="M339 20.5H341V29H339V20.5Z" fill="white"/>
<path d="M341 20.5H343V29H341V20.5Z" fill="white"/>
<path d="M343 20.5H345V29H343V20.5Z" fill="white"/>
<path d="M345 20.5H347V29H345V20.5Z" fill="white"/>
<path d="M349 21.75C349 21.0596 348.44 20.5 347.75 20.5H347V29H347.75C348.44 29 349 28.4404 349 27.75V21.75Z" fill="white"/>
</g>
<g opacity="0.5">
<path fill-rule="evenodd" clip-rule="evenodd" d="M331 21.5C331 19.8431 332.343 18.5 334 18.5H352C353.657 18.5 355 19.8431 355 21.5V28C355 29.6569 353.657 31 352 31H334C332.343 31 331 29.6569 331 28V21.5ZM334 19.5C332.895 19.5 332 20.3954 332 21.5V28C332 29.1046 332.895 30 334 30H352C353.105 30 354 29.1046 354 28V21.5C354 20.3954 353.105 19.5 352 19.5H334Z" fill="white"/>
<path d="M356 27.042C356.883 26.6562 357.5 25.7751 357.5 24.75C357.5 23.7248 356.883 22.8438 356 22.458V27.042Z" fill="white"/>
</g>
</g>
</g>
<defs>
<filter id="filter0_b_1_52" x="-56" y="-56" width="208" height="156" filterUnits="userSpaceOnUse" color-interpolation-filters="sRGB">
<feFlood flood-opacity="0" result="BackgroundImageFix"/>
<feGaussianBlur in="BackgroundImageFix" stdDeviation="28"/>
<feComposite in2="SourceAlpha" operator="in" result="effect1_backgroundBlur_1_52"/>
<feBlend mode="normal" in="SourceGraphic" in2="effect1_backgroundBlur_1_52" result="shape"/>
</filter>
<filter id="filter1_b_1_52" x="223" y="-56" width="208" height="156" filterUnits="userSpaceOnUse" color-interpolation-filters="sRGB">
<feFlood flood-opacity="0" result="BackgroundImageFix"/>
<feGaussianBlur in="BackgroundImageFix" stdDeviation="28"/>
<feComposite in2="SourceAlpha" operator="in" result="effect1_backgroundBlur_1_52"/>
<feBlend mode="normal" in="SourceGraphic" in2="effect1_backgroundBlur_1_52" result="shape"/>
</filter>
<clipPath id="clip0_1_52">
<rect width="72" height="16" fill="white" transform="translate(287 16)"/>
</clipPath>
<clipPath id="clip1_1_52">
<rect width="16" height="8.5" fill="white" transform="translate(333 20.5)"/>
</clipPath>
</defs>
</svg>
